<?xml version="1.0" encoding="UTF-8"?>
<svg id="Layer_1" xmlns="http://www.w3.org/2000/svg" xmlns:xlink="http://www.w3.org/1999/xlink" version="1.1" viewBox="0 0 595.3 841.9">
  <!-- Generator: Adobe Illustrator 29.3.0, SVG Export Plug-In . SVG Version: 2.1.0 Build 146)  -->
  <defs>
    <style>
      .st0, .st1, .st2 {
        fill: none;
      }

      .st1 {
        stroke: #434ea1;
        stroke-miterlimit: 10;
      }

      .st3 {
        fill: #110e0d;
      }

      .st2 {
        stroke: #010101;
        stroke-linecap: round;
        stroke-linejoin: round;
        stroke-width: 2.5px;
      }

      .st4 {
        clip-path: url(#clippath-1);
      }

      .st5 {
        clip-path: url(#clippath-3);
      }

      .st6 {
        clip-path: url(#clippath-4);
      }

      .st7 {
        clip-path: url(#clippath-2);
      }

      .st8 {
        clip-path: url(#clippath-7);
      }

      .st9 {
        clip-path: url(#clippath-6);
      }

      .st10 {
        clip-path: url(#clippath-9);
      }

      .st11 {
        clip-path: url(#clippath-8);
      }

      .st12 {
        clip-path: url(#clippath-5);
      }

      .st13 {
        fill: #d1bbb3;
      }

      .st14 {
        clip-path: url(#clippath);
      }
    </style>
    <clipPath id="clippath">
      <rect class="st0" x="187.6" y="381.8" width="245.9" height="223.5"/>
    </clipPath>
    <clipPath id="clippath-1">
      <rect class="st0" x="188.2" y="382.1" width="245" height="222.6"/>
    </clipPath>
    <clipPath id="clippath-2">
      <rect class="st0" x="52.2" y="613.7" width="490.8" height="64"/>
    </clipPath>
    <clipPath id="clippath-3">
      <rect class="st0" x="52.2" y="640.3" width="490.8" height="64"/>
    </clipPath>
    <clipPath id="clippath-4">
      <rect class="st0" x="52.2" y="624.3" width="490.8" height="64"/>
    </clipPath>
    <clipPath id="clippath-5">
      <rect class="st0" x="52.2" y="652.3" width="490.8" height="64"/>
    </clipPath>
    <clipPath id="clippath-6">
      <rect class="st0" x="52.2" y="636.3" width="490.8" height="64"/>
    </clipPath>
    <clipPath id="clippath-7">
      <rect class="st0" x="52.2" y="663" width="490.8" height="64"/>
    </clipPath>
    <clipPath id="clippath-8">
      <rect class="st0" x="52.2" y="648.3" width="490.8" height="64"/>
    </clipPath>
    <clipPath id="clippath-9">
      <rect class="st0" x="52.2" y="675" width="490.8" height="63.7"/>
    </clipPath>
  </defs>
  <g>
    <path class="st13" d="M110.2,130.6c0,.8.8,1.5,1.6,1.5,11.7-1.5,20.6-10.6,20.6-21.9s-19.7-22.3-19.7-37.1,7.8-16.9,18-18.3c.8-.2,1.4-.7,1.4-1.5s-.6-1.6-1.6-1.6-.1,0-.2,0c-11.7,1.7-20.5,10.2-20.5,21.4s4.3,13.3,9.8,19.3c4.2,4.9,9.8,11.1,9.8,17.8,0,9.5-7.9,17.3-17.8,18.8-.8.2-1.5.7-1.5,1.6h.1Z"/>
    <path class="st13" d="M195.8,118.3c.7,0,1-.3,1-.8s-.1-.5-.3-.9l-22.3-48.5c-.2-.7-.6-1.1-1.1-1.1s-.2,0-.4,0h-.3c-.5,0-.9.3-1.1.8l-22.6,48.9c-.1.3-.2.6-.2.8,0,.6.4.8,1.1.8h46.2ZM172.7,72l20.2,43.3h-40.5l20.3-43.3Z"/>
    <path class="st13" d="M258,68.8c0-1-.5-1.5-1.6-1.5s-1.5.5-1.5,1.5v29.8c0,10.3-8,18-18.4,18s-18.4-7.8-18.4-18v-29.8c0-1-.5-1.5-1.5-1.5s-1.6.5-1.6,1.5v29.5c0,11.7,9.1,21.3,21.5,21.3s21.4-9.5,21.4-21.3v-29.5h.1Z"/>
    <path class="st13" d="M281.1,67c-1.5,0-2.3.8-2.3,2.3v46.7c0,1.4.6,2.2,1.9,2.3h17.2c14,0,24.7-11.4,24.7-25.7s-10.9-25.3-25-25.5h-16.5ZM281.8,70.1h15c13.9,0,22.7,10.8,22.7,22.4s-8.5,22.8-22.3,22.8h-15.4v-45.2h0Z"/>
    <path class="st13" d="M385.6,118.3c.7,0,1-.3,1-.8s-.1-.5-.3-.9l-22.3-48.5c-.2-.7-.6-1.1-1.1-1.1s-.2,0-.4,0h-.3c-.5,0-.9.3-1.1.8l-22.6,48.9c-.1.3-.2.6-.2.8,0,.6.4.8,1.1.8h46.2ZM362.5,72l20.2,43.3h-40.5l20.3-43.3Z"/>
    <path class="st13" d="M408.7,67c-1.5,0-2.3.8-2.3,2.3v46.7c0,1.4.6,2.2,1.9,2.3h17.2c14,0,24.7-11.4,24.7-25.7s-10.9-25.3-25-25.5h-16.5ZM409.4,70.1h15c13.9,0,22.7,10.8,22.7,22.4s-8.5,22.8-22.3,22.8h-15.4v-45.2h0Z"/>
    <path class="st13" d="M471,67.1c-.8,0-1.5.6-1.5,1.5v48.2c0,.8.2,1.5,1,1.5h34.8c1.1,0,1.6-.5,1.6-1.5s-.5-1.5-1.6-1.5h-32.8v-21.2h26c1.1,0,1.6-.5,1.6-1.5s-.5-1.5-1.6-1.5h-26v-21.1h31.7c1.1,0,1.6-.5,1.6-1.5s-.5-1.5-1.6-1.5h-33.2Z"/>
  </g>
  <g>
    <path class="st3" d="M110.2,223.7c0,.8.8,1.5,1.6,1.5,11.7-1.5,20.6-10.6,20.6-21.9s-19.7-22.3-19.7-37.1,7.8-16.9,18-18.3c.8-.2,1.4-.7,1.4-1.5s-.6-1.6-1.6-1.6-.1,0-.2,0c-11.7,1.7-20.5,10.2-20.5,21.4s4.3,13.3,9.8,19.3c4.2,4.9,9.8,11.1,9.8,17.8,0,9.5-7.9,17.3-17.8,18.8-.8.2-1.5.7-1.5,1.6h.1Z"/>
    <path class="st3" d="M195.8,211.4c.7,0,1-.3,1-.8s-.1-.5-.3-.9l-22.3-48.5c-.2-.7-.6-1.1-1.1-1.1s-.2,0-.4,0h-.3c-.5,0-.9.3-1.1.8l-22.6,48.9c-.1.3-.2.6-.2.8,0,.6.4.8,1.1.8h46.2ZM172.7,165.1l20.2,43.3h-40.5l20.3-43.3Z"/>
    <path class="st3" d="M258,161.9c0-1-.5-1.5-1.6-1.5s-1.5.5-1.5,1.5v29.8c0,10.3-8,18-18.4,18s-18.4-7.8-18.4-18v-29.8c0-1-.5-1.5-1.5-1.5s-1.6.5-1.6,1.5v29.5c0,11.7,9.1,21.3,21.5,21.3s21.4-9.5,21.4-21.3v-29.5h.1Z"/>
    <path class="st3" d="M281.1,160.1c-1.5,0-2.3.8-2.3,2.3v46.7c0,1.4.6,2.2,1.9,2.3h17.2c14,0,24.7-11.4,24.7-25.7s-10.9-25.3-25-25.5h-16.5ZM281.8,163.2h15c13.9,0,22.7,10.8,22.7,22.4s-8.5,22.8-22.3,22.8h-15.4v-45.2h0Z"/>
    <path class="st3" d="M385.6,211.4c.7,0,1-.3,1-.8s-.1-.5-.3-.9l-22.3-48.5c-.2-.7-.6-1.1-1.1-1.1s-.2,0-.4,0h-.3c-.5,0-.9.3-1.1.8l-22.6,48.9c-.1.3-.2.6-.2.8,0,.6.4.8,1.1.8h46.2ZM362.5,165.1l20.2,43.3h-40.5l20.3-43.3Z"/>
    <path class="st3" d="M408.7,160.1c-1.5,0-2.3.8-2.3,2.3v46.7c0,1.4.6,2.2,1.9,2.3h17.2c14,0,24.7-11.4,24.7-25.7s-10.9-25.3-25-25.5h-16.5ZM409.4,163.2h15c13.9,0,22.7,10.8,22.7,22.4s-8.5,22.8-22.3,22.8h-15.4v-45.2h0Z"/>
    <path class="st3" d="M471,160.2c-.8,0-1.5.6-1.5,1.5v48.2c0,.8.2,1.5,1,1.5h34.8c1.1,0,1.6-.5,1.6-1.5s-.5-1.5-1.6-1.5h-32.8v-21.2h26c1.1,0,1.6-.5,1.6-1.5s-.5-1.5-1.6-1.5h-26v-21.1h31.7c1.1,0,1.6-.5,1.6-1.5s-.5-1.5-1.6-1.5h-33.2Z"/>
  </g>
  <g>
    <path class="st13" d="M115.9,253.7c0,.1,0,.2.2.2h5.6v17.1c0,.1,0,.2.2.2s.2,0,.2-.2v-17.1h5.6c0,0,.2,0,.2-.2s0-.2-.2-.2h-11.6c0,0-.2,0-.2.2h0Z"/>
    <path class="st13" d="M150.4,253.5c-.1,0-.2,0-.2.2v10.4h-13.2v-10.4c0-.1,0-.2-.2-.2s-.2,0-.2.2v17.3c0,.1,0,.2.2.2s.2,0,.2-.2v-6.6h13.2v6.6c0,.1,0,.2.2.2s.2,0,.2-.2v-17.3c0-.1,0-.2-.2-.2Z"/>
    <path class="st13" d="M173.6,270.8h-11.7v-6.4h9.7c.2,0,.3,0,.3-.2h0c0-.1,0-.2-.3-.2h-9.7v-10.1h11.5q.2,0,.2-.2h0c0-.1,0-.2-.2-.2h-11.7q-.2,0-.2.2v17.2q0,.2.2.2h11.9c.1,0,.2,0,.2-.2h0c0-.1,0-.2-.2-.2h0Z"/>
    <path class="st13" d="M206.8,270.9l-7.3-17.3s-.1-.2-.2-.2h0s-.1,0-.2.2l-7.3,17.3c0,.2,0,.3.2.3h0s.1,0,.1-.2l1.2-2.9h11.8l1.2,2.9s0,.1.1.1h0c.2,0,.2-.1.2-.3h.2ZM193.6,267.8l5.7-13.7,5.7,13.7h-11.5.1Z"/>
    <path class="st13" d="M224.4,265.5c2.1-1,3.4-3.1,3.4-5.6,0-3.7-2.7-6.4-6.5-6.4h-5.6c-.1,0-.2,0-.2.2v17.3c0,.1,0,.2.2.2h0c.1,0,.2,0,.2-.2v-4.8h5.4c1,0,1.9-.2,2.8-.5l2.6,5.4s.1.2.2.2h0c.1,0,.2-.1.1-.3l-2.6-5.4h0ZM215.8,265.8v-11.9h5.4c3.5,0,6.1,2.5,6.1,6s-2.5,5.9-6.1,5.9h-5.4Z"/>
    <path class="st13" d="M235.6,253.7c0,.1,0,.2.2.2h5.6v17.1c0,.1,0,.2.2.2s.2,0,.2-.2v-17.1h5.6c.1,0,.2,0,.2-.2s0-.2-.2-.2h-11.6c-.1,0-.2,0-.2.2h0Z"/>
    <path class="st13" d="M265.4,253.7c0,.1,0,.2.2.2h5.6v17.1c0,.1,0,.2.2.2s.2,0,.2-.2v-17.1h5.6c.1,0,.2,0,.2-.2s0-.2-.2-.2h-11.6c-.1,0-.2,0-.2.2h0Z"/>
    <path class="st13" d="M299.9,253.5c-.1,0-.2,0-.2.2v10.4h-13.2v-10.4c0-.1,0-.2-.2-.2s-.2,0-.2.2v17.3c0,.1,0,.2.2.2s.2,0,.2-.2v-6.6h13.2v6.6c0,.1,0,.2.2.2s.2,0,.2-.2v-17.3c0-.1,0-.2-.2-.2Z"/>
    <path class="st13" d="M323.6,270.9l-7.3-17.3s-.1-.2-.2-.2h0s-.1,0-.2.2l-7.3,17.3c0,.2,0,.3.2.3h0s.1,0,.1-.2l1.2-2.9h11.8l1.2,2.9s0,.1.1.1h0c.2,0,.2-.1.2-.3h.2ZM310.4,267.8l5.7-13.7,5.7,13.7h-11.5,0Z"/>
    <path class="st13" d="M330.1,253.7c0,.1,0,.2.2.2h5.6v17.1c0,.1,0,.2.2.2s.2,0,.2-.2v-17.1h5.6c.1,0,.2,0,.2-.2s0-.2-.2-.2h-11.6c-.1,0-.2,0-.2.2h0Z"/>
    <path class="st13" d="M380.9,270.9l-1.4-17.4c0-.1,0-.2-.2-.2h0s-.1,0-.2.1l-7.9,17.3-8-17.3s0-.1-.2-.1h0c-.1,0-.2,0-.2.2l-1.4,17.4q0,.2.2.2h0c.1,0,.2,0,.2-.2l1.4-16.8,7.8,16.9c0,.1.2.2.2.2h0s.2,0,.2-.2l7.8-16.9,1.4,16.8q0,.2.2.2h0c.1,0,.2,0,.1-.2Z"/>
    <path class="st13" d="M403.7,270.9l-7.3-17.3s-.1-.2-.2-.2h0s-.1,0-.2.2l-7.3,17.3c0,.2,0,.3.2.3h0s.1,0,.1-.2l1.2-2.9h11.8l1.2,2.9s0,.1.1.1h0c.2,0,.2-.1.2-.3h.2ZM390.5,267.8l5.7-13.7,5.7,13.7h-11.5,0Z"/>
    <path class="st13" d="M412.3,271q0,.2.2.2h5.2c5.3,0,9.2-3.9,9.2-8.8s-3.9-8.8-9.1-8.8h-5.3q-.2,0-.2.2v17.2h0ZM412.6,270.8v-16.9h5.1c5,0,8.7,3.7,8.7,8.4s-3.8,8.4-8.9,8.4h-5,0Z"/>
    <path class="st13" d="M448.4,270.8h-11.7v-6.4h9.7c.2,0,.3,0,.3-.2h0c0-.1,0-.2-.3-.2h-9.7v-10.1h11.5q.2,0,.2-.2h0c0-.1,0-.2-.2-.2h-11.7q-.2,0-.2.2v17.2q0,.2.2.2h11.9c.1,0,.2,0,.2-.2h0c0-.1,0-.2-.2-.2h0Z"/>
    <path class="st13" d="M469,253.7c0-.1,0-.2-.2-.2h0c-.1,0-.2,0-.2.2v10.6c0,3.9,3.2,7.1,7.1,7.1s7.1-3.1,7.1-6.9v-10.8q0-.2-.2-.2h0c-.1,0-.2,0-.2.2v10.6c0,3.7-3,6.7-6.7,6.7s-6.7-3-6.7-6.7v-10.6h0Z"/>
    <path class="st13" d="M497.5,271.4c3.6,0,5.8-1.8,5.8-4.7s-2.8-3.8-5.5-4.9c-2.5-1-4.9-2.1-4.9-4.4s1.8-3.6,4.7-3.6,3.4.6,4.3,1.8c.1.1.3.2.3.1h0v-.3c-.9-1.2-2.7-1.9-4.6-1.9-3.1,0-5.1,1.7-5.1,4s2.6,3.8,5.2,4.8,5.2,2.2,5.2,4.5-2,4.3-5.4,4.3-4.3-1.2-5.3-2.8c-.1-.2-.2-.2-.3-.2h0c-.1,0,0,.2,0,.4,1,1.6,3.5,3,5.7,3h-.1Z"/>
  </g>
  <g>
    <path class="st13" d="M146,299.6s-.1,0-.1.1v8.7h-11v-8.7s0-.1-.1-.1-.2,0-.2.1v14.4s0,.1.2.1.1,0,.1-.1v-5.4h11v5.4s0,.1.1.1.2,0,.2-.1v-14.4s0-.1-.2-.1Z"/>
    <path class="st13" d="M155.5,299.8s0-.1-.2-.1-.1,0-.1.1v14.4s0,.1.1.1.2,0,.2-.1v-14.4Z"/>
    <path class="st13" d="M175.6,308.4h-4.7s-.1,0-.1.2,0,.1.1.1h4.6v3.8c-1.1.9-2.9,1.6-4.5,1.6-4.1,0-7.3-3.1-7.3-7.2s3.2-7.2,7.3-7.2,3,.3,4.5,1.6h.2v-.2c-1.5-1.3-3.2-1.7-4.7-1.7-4.2,0-7.6,3.3-7.6,7.5s3.3,7.5,7.6,7.5,3.6-.7,4.7-1.7v-4.2c0-.1,0-.2-.1-.2h0Z"/>
    <path class="st13" d="M195.5,299.6s-.1,0-.1.1v8.7h-11v-8.7s0-.1-.1-.1-.2,0-.2.1v14.4s0,.1.2.1.1,0,.1-.1v-5.4h11v5.4s0,.1.1.1.2,0,.2-.1v-14.4s0-.1-.2-.1Z"/>
    <path class="st13" d="M223.3,299.7h-9c-.1,0-.2,0-.2.1v14.3c0,.1,0,.2.2.2h0s.1,0,.1-.2v-5.3h7.4c.1,0,.2,0,.2-.1h0c0-.1,0-.2-.2-.2h-7.4v-8.6h8.9c.1,0,.2,0,.2-.2h0s0-.1-.2-.1h0Z"/>
    <path class="st13" d="M238.6,309.6c1.7-.8,2.8-2.6,2.8-4.7,0-3.1-2.3-5.3-5.4-5.3h-4.7c-.1,0-.2,0-.2.1v14.4c0,.1,0,.2.2.2h0s.1,0,.1-.2v-4h4.5c.8,0,1.6-.2,2.3-.4l2.1,4.5s0,.1.2.1h0c.1,0,.2-.1.1-.2l-2.2-4.5h.2ZM231.5,309.9v-9.9h4.5c2.9,0,5.1,2.1,5.1,5s-2.1,4.9-5.1,4.9h-4.5Z"/>
    <path class="st13" d="M259.7,314h-9.8v-5.3h8.1q.2,0,.2-.1h0c0-.1,0-.2-.2-.2h-8.1v-8.4h9.5c.1,0,.2,0,.2-.2h0s0-.1-.2-.1h-9.7c-.1,0-.2,0-.2.1v14.3c0,.1,0,.2.2.2h9.9c.1,0,.2,0,.2-.2h0c0-.1,0-.2-.2-.2h.1Z"/>
    <path class="st13" d="M281.3,307.1c0-4.2-3.3-7.5-7.5-7.5s-7.5,3.3-7.5,7.5,3.2,7.4,7.3,7.5v2.2c0,.1,0,.2.2.2s.1,0,.1-.2v-2.2c4.1,0,7.4-3.3,7.4-7.5ZM273.8,314.2c-4,0-7.2-3.1-7.2-7.2s3.2-7.2,7.2-7.2,7.2,3.2,7.2,7.2-3.2,7.2-7.2,7.2Z"/>
    <path class="st13" d="M289.1,299.8q0-.1-.1-.1h0c-.1,0-.2,0-.2.1v8.9c0,3.2,2.6,5.9,5.9,5.9s5.9-2.6,5.9-5.8v-8.9q0-.1-.1-.1h0s-.2,0-.2.1v8.9c0,3.1-2.5,5.6-5.6,5.6s-5.6-2.5-5.6-5.6v-8.9h0Z"/>
    <path class="st13" d="M319.3,314h-9.8v-5.3h8.1q.2,0,.2-.1h0c0-.1,0-.2-.2-.2h-8.1v-8.4h9.5c.1,0,.2,0,.2-.2h0s0-.1-.2-.1h-9.7c-.1,0-.2,0-.2.1v14.3c0,.1,0,.2.2.2h9.9c.1,0,.2,0,.2-.2h0c0-.1,0-.2-.2-.2h.1Z"/>
    <path class="st13" d="M338.9,299.6c-.1,0-.2,0-.2.1v14.1l-11.2-14.1c0-.1-.1-.1-.2-.1s-.2,0-.2.1v14.4s0,.1.2.1.1,0,.1-.1v-14.1l11.2,14.1h.2s.2,0,.2-.1v-14.4s0-.1-.2-.1h.1Z"/>
    <path class="st13" d="M358.9,312.5c-1.3,1.1-2.9,1.7-4.5,1.7-4,0-7.3-3.2-7.3-7.2s3.2-7.2,7.3-7.2,3.2.5,4.5,1.7c.2.1.2,0,.3,0h0s0-.1-.1-.3c-1.3-1.2-3-1.7-4.7-1.7-4.2,0-7.6,3.3-7.6,7.5s3.4,7.5,7.6,7.5,3.4-.6,4.7-1.7c0,0,.1-.2,0-.3h-.2,0Z"/>
    <path class="st13" d="M375.3,299.6h0s-.1,0-.2.1l-4.8,8-4.7-8h-.1c-.1,0-.2,0,0,.2l4.9,8.2v6.1c0,.1,0,.2.2.2h0s.1,0,.1-.2v-6.1l4.9-8.2c.1-.2,0-.3,0-.3h-.3Z"/>
    <path class="st13" d="M400.4,314h-8.1v-14.2s0-.1-.1-.1-.2,0-.2.1v14.4c0,.1,0,.2.2.2h8.2c.1,0,.2,0,.2-.2s0-.2-.1-.2h-.1Z"/>
    <path class="st13" d="M407.6,299.8s0-.1-.2-.1-.1,0-.1.1v14.4s0,.1.1.1.2,0,.2-.1v-14.4Z"/>
    <path class="st13" d="M427.4,299.7h-.1c0,.1-6.1,14.3-6.1,14.3l-6.1-14.2s0-.1-.2-.1h0c-.1,0-.2,0-.1.2l6.2,14.5s0,.1.1.1h0s.1,0,.2-.1l6.2-14.5c0-.1,0-.2-.1-.2Z"/>
    <path class="st13" d="M435,299.8s0-.1-.2-.1-.1,0-.1.1v14.4s0,.1.1.1.2,0,.2-.1v-14.4Z"/>
    <path class="st13" d="M455.8,299.6c-.1,0-.2,0-.2.1v14.1l-11.2-14.1c0-.1-.1-.1-.2-.1s-.2,0-.2.1v14.4s0,.1.2.1.1,0,.1-.1v-14.1l11.2,14.1h.2s.2,0,.2-.1v-14.4s0-.1-.2-.1h.1Z"/>
    <path class="st13" d="M476.1,308.4h-4.7s-.1,0-.1.2,0,.1.1.1h4.6v3.8c-1.1.9-2.9,1.6-4.5,1.6-4.1,0-7.3-3.1-7.3-7.2s3.2-7.2,7.3-7.2,3,.3,4.5,1.6h.2v-.2c-1.5-1.3-3.2-1.7-4.7-1.7-4.2,0-7.6,3.3-7.6,7.5s3.3,7.5,7.6,7.5,3.6-.7,4.7-1.7v-4.2c0-.1,0-.2-.1-.2h0Z"/>
  </g>
  <g>
    <g class="st14">
      <g>
        <g class="st4">
          <path class="st1" d="M310.7,404.4c-1.4,3.4-3.5,6.6-4.1,10.1-.8,4.7.1,7.7,1.5,11.1.8,1.9,1.7,3.8,2.5,6.2.9-2.4,1.8-4.3,2.5-6.2,1.4-3.4,2.3-6.4,1.5-11.1-.6-3.6-2.6-6.7-4.1-10.1h.2ZM310.7,401.9h0c-.1,0-.2,0-.3.2,0,0-.1.2-.2.3-1.3,4.1-4,7.8-4.7,12-.8,5,.1,8.1,1.6,11.7.9,2.3,2.1,4.8,3.1,8,0,.1,0,.2.2.3,0,0,.2.1.3.2h.2c.1,0,.2,0,.3-.2,0,0,.1-.2.2-.3,1-3.2,2.2-5.7,3.1-8,1.5-3.6,2.4-6.7,1.6-11.7-.7-4.2-3.4-7.9-4.7-12,0,0,0-.2-.2-.3,0,0-.2-.1-.3-.2h-.2ZM261.7,416.3c.7,3.6.6,7.3,2.1,10.6,1.9,4.4,4.4,6.6,7.4,8.9,1.7,1.3,3.5,2.5,5.6,4.2-.6-2.5-.9-4.6-1.2-6.5-.7-3.6-1.5-6.6-4.8-10.3-2.5-2.8-6-4.6-9.1-6.9h0ZM359.6,416.3c-3.1,2.3-6.6,4.1-9.1,6.9-3.3,3.7-4.1,6.8-4.8,10.3-.4,2-.7,4.1-1.2,6.5,2.1-1.7,3.9-3,5.6-4.2,3.1-2.3,5.5-4.5,7.4-8.9,1.5-3.3,1.4-7,2.1-10.6h0ZM360.5,414.1c-.1,0-.2,0-.3.1-3.4,3-7.8,4.9-10.7,8.2-3.4,3.9-4.4,7.1-5,10.8-.4,2.4-.8,5.1-1.7,8.3v.3s0,.2.2.3h.5c.1,0,.2,0,.3-.1,2.7-2.3,5-3.9,7.1-5.5,3.2-2.4,5.8-4.7,7.8-9.4,1.7-3.9,1.4-8.4,2.5-12.5v-.3s0-.2-.2-.3h-.5ZM260.5,414.1h0s-.1.2-.2.3,0,.2,0,.3c1.1,4.2.8,8.6,2.5,12.5,2,4.7,4.6,7,7.8,9.4,2.1,1.6,4.4,3.2,7.1,5.5,0,0,.2.1.3.1h.5s.1-.2.2-.3v-.3c-.9-3.3-1.3-5.9-1.7-8.3-.7-3.7-1.6-6.9-5-10.8-2.9-3.3-7.3-5.3-10.7-8.2,0,0-.2-.1-.3-.1h-.5ZM225.8,448.9c2.5,2.8,4.5,6,7.6,8.3,4.1,3,7.4,3.7,11.3,4.3,2.1.3,4.5.6,7.2,1.1-1.8-1.9-3.3-3.6-4.6-5.1-2.5-2.8-4.9-5-9.8-6.8-3.7-1.3-7.7-1.3-11.7-1.9h0ZM395.5,448.9c-3.9.6-8,.6-11.7,1.9-4.9,1.7-7.3,4-9.8,6.8-1.4,1.5-2.8,3.2-4.6,5.1,2.7-.5,5-.8,7.2-1.1,3.9-.6,7.2-1.4,11.3-4.3,3.1-2.2,5.1-5.4,7.6-8.3h0ZM366.8,463.5v.3h0c0,.1.2.2.3.2h.3c3.6-.8,6.5-1.1,9.2-1.5,4.1-.6,7.6-1.5,11.9-4.6,3.6-2.6,5.8-6.6,9.1-9.7,0,0,.1-.2.2-.3v-.3h0s-.2-.1-.3-.1h-.3c-4.6,1-9.5.7-13.8,2.3-5.1,1.8-7.7,4.2-10.3,7.1-1.7,1.9-3.5,4-6.1,6.4,0,0-.1.2-.2.3h0ZM223.9,447.4c-.1,0-.2,0-.3.1h0v.3s0,.2.2.3c3.2,3.1,5.4,7.1,9.1,9.7,4.3,3.1,7.8,4,11.9,4.6,2.7.4,5.6.7,9.2,1.5h.3c.1,0,.2,0,.3-.1h0v-.4s0-.2-.2-.3c-2.6-2.4-4.3-4.6-6.1-6.4-2.7-2.9-5.2-5.3-10.3-7.1-4.3-1.6-9.2-1.3-13.8-2.3h-.3,0ZM288,416.6c-4.7,11.5-.4,23.7,6,35.5,2.8,5.2,6,10.3,9,15.3-.1-5.7-.2-11.6-.6-17.3-1-13.1-4-25.7-14.4-33.5ZM333.3,416.6c-10.4,7.8-13.3,20.3-14.4,33.5-.4,5.8-.5,11.7-.6,17.3,3-5,6.2-10.1,9-15.3,6.3-11.8,10.7-24,6-35.5ZM248.8,437.2c2.3,12.1,12.7,20.7,24.7,28,5.3,3.2,10.9,6.2,16.2,9.2-3.2-4.9-6.5-9.9-10.1-14.7-8.1-10.9-17.6-20.4-30.8-22.5ZM372.5,437.2c-13.3,2.1-22.8,11.6-30.8,22.5-3.6,4.8-6.9,9.9-10.1,14.7,5.3-2.9,10.9-5.9,16.2-9.2,12-7.4,22.4-16,24.7-28h0ZM310.7,384.9c-1.8,5-5.2,9.5-9,13.7-4.2,4.7-8.8,9.2-11.7,14-.6.9-1.1,1.9-1.5,2.8,10.9,8,14.1,20.9,15.2,34.5.5,6.6.5,13.3.7,19.6,2.4,3.9,4.6,7.7,6.3,11.4,1.7-3.6,3.9-7.4,6.3-11.4.1-6.4.2-13.1.7-19.6,1-13.6,4.3-26.5,15.2-34.5-.4-.9-.9-1.9-1.5-2.8-2.9-4.8-7.5-9.3-11.7-14-3.8-4.2-7.2-8.7-9-13.7ZM251,399.5c1.2,5.2.7,10.6-.2,16-1,6-2.5,12-2.4,17.4,0,1.1.1,2.1.2,3.1,13.8,2,23.7,11.7,32.1,23,4.1,5.5,7.7,11.3,11.4,16.7,4.2,2.3,8.2,4.6,11.7,7-.5-3.9-.7-8.2-.8-12.7-3.4-5.6-7.1-11.4-10.2-17.3-6.6-12.2-10.9-24.9-5.9-36.8-.9-.6-1.8-1.2-2.8-1.7-5.1-2.8-11.6-4.6-17.8-6.8-5.6-2-11-4.2-15.3-7.8h0ZM370.3,399.5c-4.3,3.6-9.7,5.8-15.3,7.8-6.2,2.2-12.6,4-17.8,6.8-1,.5-1.9,1.1-2.8,1.7,5,11.9.7,24.6-5.9,36.8-3.2,5.9-6.9,11.7-10.2,17.3-.1,4.5-.3,8.8-.8,12.7,3.5-2.4,7.5-4.7,11.7-7,3.6-5.4,7.3-11.3,11.4-16.7,8.4-11.3,18.3-21,32.1-23,.1-1,.2-2,.2-3.1.1-5.5-1.4-11.4-2.4-17.4-.9-5.4-1.5-10.8-.2-16h0ZM304.4,472.2c.1,4,.4,7.9.9,11.4,1.1.8,2.2,1.6,3.2,2.4.4-1.2.9-2.4,1.5-3.6-1.5-3.3-3.4-6.7-5.5-10.3h-.1ZM316.9,472.2c-2.1,3.6-4,7-5.5,10.3.5,1.2,1,2.4,1.5,3.6,1-.8,2.1-1.6,3.2-2.4.5-3.5.7-7.4.9-11.4h-.1ZM395.2,472.8c-12.6-4.2-26.1-.3-39.1,5.4-5.7,2.5-11.4,5.4-16.8,8.2,6.2-.1,12.7-.2,19.1-.6,14.4-.9,28.2-3.6,36.8-13ZM282.1,486.4c-5.5-2.7-11.1-5.6-16.8-8.2-13-5.8-26.4-9.7-39.1-5.4,8.6,9.4,22.4,12.1,36.8,13,6.4.4,12.8.5,19.1.6ZM247.5,437c-1.1-.1-2.2-.2-3.4-.2-6-.1-12.6,1.3-19.2,2.2-5.9.8-11.9,1.3-17.6.2,3.9,3.9,6.4,8.9,8.6,13.9,2.4,5.7,4.4,11.5,7.5,16.2.6.9,1.2,1.8,1.9,2.6,13.1-4.6,27-.6,40.5,5.3,6.5,2.9,12.9,6.2,19,9.3,4.9.1,9.6.3,14,.7-2.6-3.2-5.1-6.8-7.7-10.7-6-3.3-12.4-6.7-18.4-10.3-12.4-7.6-23.2-16.6-25.3-29.2h.1ZM414,439.2c-5.7,1.1-11.6.6-17.6-.2-6.6-.9-13.2-2.3-19.2-2.2-1.2,0-2.3,0-3.4.2-2.2,12.6-12.9,21.6-25.3,29.2-6,3.7-12.4,7-18.4,10.3-2.6,3.8-5.1,7.5-7.7,10.7,4.3-.4,9.1-.6,14-.7,6.1-3.1,12.5-6.4,19-9.3,13.5-6,27.4-9.9,40.5-5.3.7-.8,1.3-1.7,1.9-2.6,3.1-4.7,5.1-10.5,7.5-16.2,2.2-5.1,4.7-10,8.6-13.9h.1ZM310.7,484.1c-.4,1-.8,1.9-1.1,2.9.4.3.7.7,1.1,1,.4-.3.7-.7,1.1-1-.3-.9-.7-1.9-1.1-2.9ZM293.6,477.9c2.3,3.4,4.7,6.7,7,9.5,1.4.2,2.8.4,4.1.6-.3-1.2-.5-2.5-.7-3.7-3.1-2.2-6.7-4.3-10.5-6.4h.1ZM327.7,477.9c-3.8,2.1-7.3,4.2-10.5,6.4-.2,1.3-.4,2.5-.7,3.7,1.3-.3,2.7-.5,4.1-.6,2.4-2.8,4.7-6.1,7-9.5h.1ZM305.6,485.3c.2,1,.4,2,.6,3,.5.1,1,.2,1.5.4.1-.4.3-.9.4-1.4-.8-.7-1.6-1.3-2.5-2ZM315.8,485.3c-.9.6-1.7,1.3-2.5,2,.1.5.3.9.4,1.4.5-.1,1-.2,1.5-.4.2-1,.4-1.9.6-3ZM319.5,488.7c-1.1.2-2.2.3-3.3.6-.1.5-.3.9-.4,1.4.5.1,1,.2,1.5.4.7-.7,1.5-1.5,2.2-2.3h0ZM301.8,488.7c.7.8,1.4,1.6,2.2,2.3.5-.1,1-.3,1.5-.4-.1-.4-.3-.9-.4-1.4-1.1-.2-2.1-.4-3.3-.6h0ZM334,487.7c-4.4.1-8.7.3-12.6.8-.9,1-1.8,2-2.7,2.9,1.3.4,2.6.8,3.9,1.3,3.6-1.4,7.4-3.1,11.3-5h.1ZM287.4,487.7c3.9,1.9,7.7,3.7,11.3,5,1.3-.5,2.6-.9,3.9-1.3-.9-.9-1.8-1.9-2.7-2.9-3.9-.5-8.1-.7-12.6-.8h.1ZM317.7,492.4c-.4.3-.7.7-1.1,1,.4.3.7.7,1.1,1,1-.3,2.1-.6,3.1-1-1.1-.4-2.1-.7-3.1-1ZM303.6,492.4c-1,.3-2.1.6-3.1,1,1.1.4,2.1.7,3.1,1,.4-.3.7-.7,1.1-1-.4-.3-.7-.7-1.1-1ZM408.6,493.4c-3.7-1.3-7.2-3.2-11.2-3.7-5.2-.7-8.5.1-12.2,1.4-2,.7-4.2,1.5-6.8,2.3,2.6.8,4.8,1.6,6.8,2.3,3.7,1.3,7,2.1,12.2,1.4,3.9-.5,7.4-2.4,11.2-3.7h0ZM242.9,493.4c-2.6-.8-4.8-1.6-6.8-2.3-3.7-1.3-7-2.1-12.2-1.4-3.9.5-7.4,2.4-11.2,3.7,3.7,1.3,7.2,3.2,11.2,3.7,5.2.7,8.5-.1,12.2-1.4,2-.7,4.2-1.5,6.8-2.3h0ZM317.3,495.7c-.5.1-1,.3-1.5.4.1.4.3.9.4,1.4,1.1.2,2.1.4,3.3.6-.7-.8-1.4-1.6-2.2-2.3h0ZM304,495.7c-.7.7-1.5,1.5-2.2,2.3,1.1-.2,2.2-.3,3.3-.6.1-.5.3-.9.4-1.4-.5-.1-1-.2-1.5-.4h0ZM309.2,488.2c-.1.4-.2.8-.3,1.2,0,.2-.2.3-.4.4-.2.1-.4.2-.6,0-.4-.1-.9-.2-1.3-.3.1.4.2.8.4,1.2,0,.2,0,.4-.1.5,0,.2-.2.3-.5.4-.4,0-.9.2-1.3.3.3.3.6.6,1,.9.2.1.2.3.2.5s0,.4-.2.5c-.3.3-.7.6-1,.9.4.1.9.2,1.3.3.2,0,.4.2.5.4.1.1.2.3.1.5-.1.4-.3.8-.4,1.2.4-.1.9-.2,1.3-.3h.6c.2,0,.3.2.4.4.1.4.2.8.3,1.2.3-.3.6-.6,1-.9.1-.1.4-.2.6-.2s.4,0,.6.2c.3.3.6.6,1,.9.1-.4.2-.8.3-1.2,0-.2.2-.3.4-.4.2-.1.4-.2.6,0,.4.1.9.2,1.3.3-.1-.4-.2-.8-.4-1.2,0-.2,0-.4.1-.5,0-.2.2-.3.5-.4.4,0,.9-.2,1.3-.3-.3-.3-.6-.6-1-.9-.2-.1-.2-.3-.2-.5s0-.4.2-.5c.3-.3.7-.6,1-.9-.4-.1-.9-.2-1.3-.3-.2,0-.4-.2-.5-.4-.1-.1-.2-.3-.1-.5.1-.4.3-.8.4-1.2-.4.1-.9.2-1.3.3h-.6c-.2,0-.3-.2-.4-.4-.1-.4-.2-.8-.3-1.2-.3.3-.6.6-1,.9-.1.1-.4.2-.6.2s-.4,0-.6-.2c-.3-.3-.6-.6-1-.9ZM375.7,493s-.1.2-.2.3h0v.2h0c0,.1,0,.2.2.3,0,0,.2.1.3.2,3.6.9,6.3,2,8.8,2.8,3.9,1.3,7.4,2.2,12.9,1.5,4.6-.6,8.7-3.1,13.2-4.3.1,0,.2,0,.3-.2,0,0,.1-.2.2-.3h0s0-.2-.2-.3c0,0-.2-.1-.3-.2-4.5-1.2-8.6-3.7-13.2-4.3-5.5-.7-9,.1-12.9,1.5-2.5.9-5.2,1.9-8.8,2.8-.1,0-.2,0-.3.2v-.2ZM210.2,493s-.1.2-.2.3h0s0,.2.2.3c0,0,.2.1.3.2,4.5,1.2,8.6,3.7,13.2,4.3,5.5.7,9-.1,12.9-1.5,2.5-.9,5.2-1.9,8.8-2.8.1,0,.2,0,.3-.2,0,0,.1-.2.2-.3h0v-.2h0c0-.1,0-.2-.2-.3,0,0-.2-.1-.3-.2-3.6-.9-6.3-2-8.8-2.8-3.9-1.3-7.4-2.2-12.9-1.5-4.6.6-8.7,3.1-13.2,4.3-.1,0-.2,0-.3.2v.2ZM322.6,494c-1.3.5-2.6.9-3.9,1.3.9.9,1.8,1.9,2.7,2.9,3.9.5,8.1.7,12.6.8-3.9-1.9-7.7-3.7-11.3-5h-.1ZM298.7,494c-3.6,1.4-7.4,3.1-11.3,5,4.4-.1,8.7-.3,12.6-.8.9-1,1.8-2,2.7-2.9-1.3-.4-2.6-.8-3.9-1.3h-.1ZM313.7,498.1c-.1.4-.3.9-.4,1.4.8.7,1.6,1.3,2.5,2-.2-1-.4-2-.6-3-.5-.1-1-.2-1.5-.4ZM307.7,498.1c-.5.1-1,.2-1.5.4-.2,1-.4,1.9-.6,3,.9-.6,1.7-1.3,2.5-2-.1-.5-.3-.9-.4-1.4ZM310.7,498.8c-.4.3-.7.7-1.1,1,.3.9.7,1.9,1.1,2.9.4-1,.8-1.9,1.1-2.9-.4-.3-.7-.7-1.1-1ZM316.6,498.7c.3,1.2.5,2.5.7,3.7,3.1,2.2,6.7,4.3,10.5,6.4-2.3-3.4-4.7-6.7-7-9.5-1.4-.2-2.8-.4-4.1-.6h-.1ZM304.8,498.7c-1.3.3-2.7.5-4.1.6-2.4,2.8-4.7,6.1-7,9.5,3.8-2.1,7.3-4.2,10.5-6.4.2-1.3.4-2.5.7-3.7h-.1ZM396.4,473.3c-8.8,9.9-23.1,12.8-38,13.8-7.2.5-14.6.5-21.6.6-4.3,2.1-8.5,4.1-12.5,5.7,4,1.6,8.2,3.6,12.5,5.7,7,.1,14.4.1,21.6.6,15,1,29.2,3.9,38,13.8,1-.4,2-.8,3.1-1.4,5.3-2.6,10.2-6.8,15.4-10.6,4.7-3.4,9.6-6.6,15.1-8.2-5.5-1.6-10.4-4.7-15.1-8.2-5.2-3.8-10.1-8-15.4-10.6-1-.5-2-1-3.1-1.4v.2ZM224.9,473.3c-1,.4-2,.8-3.1,1.4-5.3,2.6-10.2,6.8-15.4,10.6-4.7,3.4-9.6,6.6-15.1,8.2,5.5,1.6,10.4,4.7,15.1,8.2,5.2,3.8,10.1,8,15.4,10.6,1,.5,2,1,3.1,1.4,8.8-9.9,23.1-12.8,38-13.8,7.2-.5,14.6-.5,21.6-.6,4.3-2.1,8.5-4.1,12.5-5.7-4-1.6-8.2-3.6-12.5-5.7-7-.1-14.4-.1-21.6-.6-15-1-29.2-3.9-38-13.8v-.2ZM308.5,500.7c-1,.8-2.1,1.6-3.2,2.4-.5,3.5-.7,7.4-.9,11.4,2.1-3.6,4-7,5.5-10.3-.5-1.2-1-2.4-1.5-3.6h.1ZM312.8,500.7c-.4,1.2-.9,2.4-1.5,3.6,1.5,3.3,3.4,6.7,5.5,10.3-.1-4-.4-7.9-.9-11.4-1.1-.8-2.2-1.6-3.2-2.4h.1ZM339.3,500.3c5.5,2.7,11.1,5.6,16.8,8.2,13,5.8,26.4,9.7,39.1,5.4-8.6-9.4-22.4-12.1-36.8-13-6.4-.4-12.8-.5-19.1-.6h0ZM282.1,500.3c-6.2.1-12.7.2-19.1.6-14.4.9-28.2,3.6-36.8,13,12.6,4.2,26.1.3,39.1-5.4,5.7-2.5,11.4-5.4,16.8-8.2h0ZM369.4,524.2c1.8,1.9,3.3,3.6,4.6,5.1,2.5,2.8,4.9,5,9.8,6.8,3.7,1.3,7.7,1.3,11.7,1.9-2.5-2.8-4.5-6-7.6-8.3-4.1-3-7.4-3.7-11.3-4.3-2.1-.3-4.5-.6-7.2-1.1h0ZM252,524.2c-2.7.5-5,.8-7.2,1.1-3.9.6-7.2,1.4-11.3,4.3-3.1,2.2-5.1,5.4-7.6,8.3,3.9-.6,8-.6,11.7-1.9,4.9-1.7,7.3-4,9.8-6.8,1.4-1.5,2.8-3.2,4.6-5.1h0ZM367.2,522.6c-.1,0-.2,0-.3,0h0v.4s0,.2.2.3c2.6,2.4,4.3,4.6,6.1,6.4,2.7,2.9,5.2,5.3,10.3,7.1,4.3,1.6,9.2,1.3,13.8,2.3h.3c.1,0,.2,0,.3,0h0v-.3s0-.2-.2-.3c-3.2-3.1-5.4-7.1-9.1-9.7-4.3-3.1-7.8-4-11.9-4.6-2.7-.4-5.6-.7-9.2-1.5h-.3,0ZM223.4,538.7v.3h0s.2,0,.3,0h.3c4.6-1,9.5-.7,13.8-2.3,5.1-1.8,7.7-4.2,10.3-7.1,1.7-1.9,3.5-4,6.1-6.4,0,0,.1-.2.2-.3v-.3h0c0,0-.2-.2-.3-.2h-.3c-3.6.8-6.5,1.1-9.2,1.5-4.1.6-7.6,1.5-11.9,4.6-3.6,2.6-5.8,6.6-9.1,9.7,0,0-.1.2-.2.3h0ZM331.6,512.4c3.2,4.9,6.5,9.9,10.1,14.7,8.1,10.9,17.6,20.4,30.8,22.5-2.3-12.1-12.7-20.7-24.7-28-5.3-3.2-10.9-6.2-16.2-9.2h0ZM289.7,512.4c-5.3,2.9-10.9,5.9-16.2,9.2-12,7.4-22.4,16-24.7,28,13.3-2.1,22.8-11.6,30.8-22.5,3.6-4.8,6.9-9.9,10.1-14.7ZM322.5,499.6c2.6,3.2,5.1,6.8,7.7,10.7,6,3.3,12.4,6.7,18.4,10.3,12.4,7.6,23.2,16.6,25.3,29.2,1.1,0,2.2.2,3.4.2,6,0,12.6-1.3,19.2-2.2,5.9-.8,11.9-1.3,17.6-.2-3.9-3.9-6.4-8.9-8.6-13.9-2.4-5.7-4.4-11.5-7.5-16.2-.6-.9-1.2-1.8-1.9-2.6-13.1,4.6-27,.6-40.5-5.3-6.5-2.9-12.9-6.2-19-9.3-4.9-.1-9.6-.3-14-.7h-.1ZM298.9,499.6c-4.3.4-9.1.6-14,.7-6.1,3.1-12.5,6.4-19,9.3-13.5,6-27.4,9.9-40.5,5.3-.7.8-1.3,1.7-1.9,2.6-3.1,4.7-5.1,10.5-7.5,16.2-2.2,5.1-4.7,10-8.6,13.9,5.7-1.1,11.6-.6,17.6.2,6.6.9,13.2,2.3,19.2,2.2,1.2,0,2.3,0,3.4-.2,2.2-12.6,12.9-21.6,25.3-29.2,6-3.7,12.4-7,18.4-10.3,2.6-3.8,5.1-7.5,7.7-10.7h-.1ZM318.3,519.4c.1,5.7.2,11.6.6,17.3,1,13.1,4,25.7,14.4,33.5,4.7-11.5.4-23.7-6-35.5-2.8-5.2-6-10.3-9-15.3ZM303,519.4c-3,5-6.2,10.1-9,15.3-6.3,11.8-10.7,24-6,35.5,10.4-7.8,13.3-20.3,14.4-33.5.4-5.8.5-11.7.6-17.3ZM344.6,546.7c.6,2.5.9,4.6,1.2,6.5.7,3.6,1.5,6.6,4.8,10.3,2.5,2.8,6,4.6,9.1,6.9-.7-3.6-.6-7.3-2.1-10.6-1.9-4.4-4.4-6.6-7.4-8.9-1.7-1.3-3.5-2.5-5.6-4.2ZM276.8,546.7c-2,1.7-3.9,3-5.6,4.2-3.1,2.3-5.5,4.5-7.4,8.9-1.5,3.3-1.4,7-2.1,10.6,3.1-2.3,6.6-4.1,9.1-6.9,3.3-3.7,4.1-6.8,4.8-10.3.4-2,.7-4.1,1.2-6.5ZM343.3,544.4h-.2s-.1.2-.2.3v.3c.9,3.3,1.3,5.9,1.7,8.3.7,3.7,1.6,6.9,5,10.8,2.9,3.3,7.3,5.3,10.7,8.2,0,0,.2,0,.3,0h.3s.1-.2.2-.3v-.3c-1.1-4.2-.8-8.6-2.5-12.5-2-4.7-4.6-7-7.8-9.4-2.1-1.6-4.4-3.2-7.1-5.5,0,0-.2,0-.3,0h-.3.2ZM277.7,544.4c-.1,0-.2,0-.3,0-2.7,2.3-5,3.9-7.1,5.5-3.2,2.4-5.8,4.7-7.8,9.4-1.7,3.9-1.4,8.4-2.5,12.5v.3s0,.2.2.3h.3c.1,0,.2,0,.3,0,3.4-3,7.8-4.9,10.7-8.2,3.4-3.9,4.4-7.1,5-10.8.4-2.4.8-5.1,1.7-8.3v-.3s0-.2-.2-.3h-.5.2ZM310.7,555c-.9,2.4-1.8,4.3-2.5,6.2-1.4,3.4-2.3,6.4-1.5,11.1.6,3.6,2.6,6.7,4.1,10.1,1.4-3.4,3.5-6.6,4.1-10.1.8-4.7-.1-7.7-1.5-11.1-.8-1.9-1.7-3.8-2.5-6.2h-.2ZM310.7,552.3h-.1c-.1,0-.2,0-.3.2,0,0-.1.2-.2.3-1,3.2-2.2,5.7-3.1,8-1.5,3.6-2.4,6.7-1.6,11.7.7,4.2,3.4,7.9,4.7,12,0,0,0,.2.2.3,0,0,.2,0,.3.2h0c.1,0,.2,0,.3-.2,0,0,.1-.2.2-.3,1.3-4.1,4-7.8,4.7-12,.8-5-.1-8.1-1.6-11.7-.9-2.3-2.1-4.8-3.1-8,0,0,0-.2-.2-.3,0,0-.2,0-.3-.2h-.1.2ZM317.5,504.1c.5,3.9.7,8.2.8,12.7,3.4,5.6,7.1,11.4,10.2,17.3,6.6,12.2,10.9,24.9,5.9,36.8.9.6,1.8,1.2,2.8,1.7,5.1,2.8,11.6,4.6,17.8,6.8,5.6,2,11,4.2,15.3,7.8-1.2-5.2-.7-10.6.2-16,1-6,2.5-12,2.4-17.4,0-1.1-.1-2.1-.2-3.1-13.8-2-23.7-11.7-32.1-23-4.1-5.5-7.7-11.3-11.4-16.7-4.2-2.3-8.2-4.6-11.7-7h0ZM303.9,504.1c-3.5,2.4-7.5,4.7-11.7,7-3.6,5.4-7.3,11.3-11.4,16.7-8.4,11.3-18.3,21-32.1,23-.1,1-.2,2-.2,3.1-.1,5.5,1.4,11.4,2.4,17.4.9,5.4,1.5,10.8.2,16,4.3-3.6,9.7-5.8,15.3-7.8,6.2-2.2,12.6-4,17.8-6.8,1-.5,1.9-1.1,2.8-1.7-5-11.9-.7-24.6,5.9-36.8,3.2-5.9,6.9-11.7,10.2-17.3.1-4.5.3-8.8.8-12.7h0ZM310.7,505.8c-1.7,3.6-3.9,7.4-6.3,11.4-.1,6.4-.2,13.1-.7,19.6-1,13.6-4.3,26.5-15.2,34.5.4.9.9,1.9,1.5,2.8,2.9,4.8,7.5,9.3,11.7,14,3.8,4.2,7.2,8.7,9,13.7,1.8-5,5.2-9.5,9-13.7,4.2-4.7,8.8-9.2,11.7-14,.6-.9,1.1-1.9,1.5-2.8-10.9-8-14.1-20.9-15.2-34.5-.5-6.6-.5-13.3-.7-19.6-2.4-3.9-4.6-7.7-6.3-11.4h0ZM310.7,382.1h-.2c-.1,0-.2,0-.3.1h0s-.1.2-.2.3h0c-1.4,5.8-5.2,10.7-9.4,15.4-4.2,4.8-8.9,9.3-11.8,14.2-.5.9-1,1.7-1.4,2.6-.8-.6-1.7-1.1-2.7-1.6-5.2-2.9-11.7-4.7-18-6.9-6.2-2.2-12.2-4.7-16.6-9.1h0s-.2-.1-.3-.1h-.5s-.1,0-.1.1h0s-.1.2-.2.3h0v.3h0c1.9,5.6,1.4,11.6.4,17.6-1,6.1-2.5,12.1-2.4,17.6,0,1,0,2,.2,2.9-1-.1-2.1-.2-3.2-.2-6.1-.1-12.7,1.3-19.4,2.2-6.5.9-13.1,1.4-19.3-.3h-.3c-.1,0-.2,0-.3.1h-.1v.3h0v.3h0s0,.2.2.3h0c4.8,4,7.6,9.4,10,15.1s4.5,11.6,7.6,16.4c.6.8,1.2,1.6,1.8,2.4-1,.4-1.9.8-2.9,1.3-5.3,2.7-10.3,6.9-15.6,10.7-5.2,3.8-10.6,7.2-16.9,8.5h0c-.1,0-.2,0-.3.1h0s-.1.2-.2.3h0v.2h0v.2h0c0,.1,0,.2.2.3h0s.2.1.3.2h0c6.3,1.3,11.8,4.7,16.9,8.5,5.3,3.9,10.3,8,15.6,10.7,1,.5,1.9.9,2.9,1.3-.6.8-1.2,1.6-1.8,2.4-3.1,4.7-5.2,10.6-7.6,16.4-2.4,5.6-5.2,11.1-10,15.1h0s-.1.2-.2.3h0v.3h0v.2h.1c0,0,.2.2.3.2h.3c6.2-1.8,12.8-1.2,19.3-.3,6.7.9,13.3,2.3,19.4,2.2,1.1,0,2.1,0,3.2-.2-.1.9-.2,1.9-.2,2.9-.1,5.5,1.4,11.6,2.4,17.6,1,5.9,1.6,11.9-.4,17.6h0v.3h0s0,.2.2.3h.1c0,0,.1,0,.2,0h.3c.1,0,.2,0,.3,0h0c4.4-4.3,10.4-6.9,16.6-9.1,6.3-2.2,12.8-4,18-6.9.9-.5,1.8-1,2.7-1.6.4.9.9,1.7,1.4,2.6,2.9,4.8,7.5,9.4,11.8,14.2,4.1,4.7,7.9,9.6,9.4,15.4h0c0,0,0,.2.2.3h0s.2,0,.3.2h.4c.1,0,.2,0,.3,0h0s.1-.2.2-.3h0c1.4-5.8,5.2-10.7,9.4-15.4,4.2-4.8,8.9-9.3,11.8-14.2.5-.9,1-1.7,1.4-2.6.8.6,1.7,1.1,2.7,1.6,5.2,2.9,11.7,4.7,18,6.9,6.2,2.2,12.2,4.7,16.6,9.1h0s.2,0,.3,0h.5s.1,0,.1,0h0s.1-.2.2-.3h0v-.3h0c-1.9-5.6-1.4-11.6-.4-17.6,1-6.1,2.5-12.1,2.4-17.6,0-1,0-2-.2-2.9,1,0,2.1.2,3.2.2,6.1,0,12.7-1.3,19.4-2.2,6.5-.9,13.1-1.4,19.3.3h.3c.1,0,.2,0,.3,0h.1v-.3h0v-.3h0s0-.2-.2-.3h0c-4.8-4-7.6-9.4-10-15.1-2.4-5.7-4.5-11.6-7.6-16.4-.6-.8-1.2-1.6-1.8-2.4,1-.4,1.9-.8,2.9-1.3,5.3-2.7,10.3-6.9,15.6-10.7,5.2-3.8,10.6-7.2,16.9-8.5h0c.1,0,.2,0,.3-.1h0s.1-.2.2-.3h0v-.2h0v-.2h0c0-.1,0-.2-.2-.3h0s-.2-.1-.3-.2h0c-6.3-1.3-11.8-4.7-16.9-8.5-5.3-3.9-10.3-8-15.6-10.7-1-.5-1.9-.9-2.9-1.3.6-.8,1.2-1.6,1.8-2.4,3.1-4.7,5.2-10.6,7.6-16.4,2.4-5.6,5.2-11.1,10-15.1h0s.1-.2.2-.3h0v-.3h0v-.2h-.1c0-.1-.2-.2-.3-.2h-.3c-6.2,1.8-12.8,1.2-19.3.3-6.7-.9-13.3-2.3-19.4-2.2-1.1,0-2.1,0-3.2.2.1-.9.2-1.9.2-2.9.1-5.5-1.4-11.6-2.4-17.6-1-5.9-1.6-11.9.4-17.6h0v-.3h0s0-.2-.2-.3h-.1c0-.1-.1-.1-.2-.1h-.3c-.1,0-.2,0-.3.1h0c-4.4,4.3-10.4,6.9-16.6,9.1-6.3,2.2-12.8,4-18,6.9-.9.5-1.8,1-2.7,1.6-.4-.9-.9-1.7-1.4-2.6-2.9-4.8-7.5-9.4-11.8-14.2-4.1-4.7-7.9-9.6-9.4-15.4h0c0-.1,0-.2-.2-.3h0s-.2-.1-.3-.2h-.2Z"/>
        </g>
        <rect class="st1" x="188.2" y="382.1" width="245" height="222.6"/>
      </g>
    </g>
    <rect class="st1" x="187.6" y="381.8" width="245.9" height="223.5"/>
  </g>
  <g class="st7">
    <path class="st2" d="M44.3,658.1h59.8s20.3-27.4,28.5-28.6c8.3-1.2,12.2,23.1,21.1,21.2,9-1.9,17.9-36.5,32.6-32.7,14.7,3.9,43.5,49.6,55.8,55.9,7.6,3.9,11.1-15.1,18.1-18.2,7-3,17.3,4.3,24.2,0,10.8-6.8,27.1-40.9,40.8-40.9s30.4,38.3,41.2,41.3c10.7,2.9,12.9-26.6,23.5-23.5,5.7,1.6,13.1,13,20.9,23.5,7.3,9.9,14.9,19.1,21.7,19.1,14.1,0,31.9-38.6,42.2-42.3,8.8-3.2,19.9,25.1,19.9,25.1h47.2"/>
  </g>
  <g class="st5">
    <path class="st2" d="M44.3,659.1h59.8s20.3,27.4,28.5,28.6c8.3,1.2,12.2-23.1,21.1-21.2s17.9,36.5,32.6,32.7c14.7-3.9,43.5-49.6,55.8-55.9,7.6-3.9,11.1,15.1,18.1,18.2,7,3,17.3-4.3,24.2,0,10.8,6.8,27.1,40.9,40.8,40.9s30.4-38.3,41.2-41.3c10.7-2.9,12.9,26.6,23.5,23.5,5.7-1.6,13.1-13,20.9-23.5,7.3-9.9,14.9-19.1,21.7-19.1,14.1,0,31.9,38.6,42.2,42.3,8.8,3.2,19.9-26.1,19.9-26.1h47.2"/>
  </g>
  <g class="st6">
    <path class="st2" d="M44.3,669.8h59.8s20.3-27.4,28.5-28.6c8.3-1.2,12.2,23.1,21.1,21.2,9-1.9,17.9-36.5,32.6-32.7,14.7,3.9,43.5,49.6,55.8,55.9,7.6,3.9,11.1-15.1,18.1-18.2,7-3,17.3,4.3,24.2,0,10.8-6.8,27.1-40.9,40.8-40.9s30.4,38.3,41.2,41.3c10.7,2.9,12.9-26.6,23.5-23.5,5.7,1.6,13.1,13,20.9,23.5,7.3,9.9,14.9,19.1,21.7,19.1,14.1,0,31.9-38.6,42.2-42.3,8.8-3.2,19.9,25.1,19.9,25.1h47.2"/>
  </g>
  <g class="st12">
    <path class="st2" d="M44.3,670.8h59.8s20.3,27.4,28.5,28.6c8.3,1.2,12.2-23.1,21.1-21.2s17.9,36.5,32.6,32.7c14.7-3.9,43.5-49.6,55.8-55.9,7.6-3.9,11.1,15.1,18.1,18.2,7,3,17.3-4.3,24.2,0,10.8,6.8,27.1,40.9,40.8,40.9s30.4-38.3,41.2-41.3c10.7-2.9,12.9,26.6,23.5,23.5,5.7-1.6,13.1-13,20.9-23.5,7.3-9.9,14.9-19.1,21.7-19.1,14.1,0,31.9,38.6,42.2,42.3,8.8,3.2,19.9-26.1,19.9-26.1h47.2"/>
  </g>
  <g class="st9">
    <path class="st2" d="M44.3,681.5h59.8s20.3-27.4,28.5-28.6c8.3-1.2,12.2,23.1,21.1,21.2s17.9-36.5,32.6-32.7c14.7,3.9,43.5,49.6,55.8,55.9,7.6,3.9,11.1-15.1,18.1-18.2,7-3,17.3,4.3,24.2,0,10.8-6.8,27.1-40.9,40.8-40.9s30.4,38.3,41.2,41.3c10.7,2.9,12.9-26.6,23.5-23.5,5.7,1.6,13.1,13,20.9,23.5,7.3,9.9,14.9,19.1,21.7,19.1,14.1,0,31.9-38.6,42.2-42.3,8.8-3.2,19.9,25.1,19.9,25.1h47.2"/>
  </g>
  <g class="st8">
    <path class="st2" d="M44.3,682.5h59.8s20.3,27.4,28.5,28.6c8.3,1.2,12.2-23.1,21.1-21.2s17.9,36.5,32.6,32.7c14.7-3.9,43.5-49.6,55.8-55.9,7.6-3.9,11.1,15.1,18.1,18.2,7,3,17.3-4.3,24.2,0,10.8,6.8,27.1,40.9,40.8,40.9s30.4-38.3,41.2-41.3c10.7-2.9,12.9,26.6,23.5,23.5,5.7-1.6,13.1-13,20.9-23.5,7.3-9.9,14.9-19.1,21.7-19.1,14.1,0,31.9,38.6,42.2,42.3,8.8,3.2,19.9-26.1,19.9-26.1h47.2"/>
  </g>
  <g class="st11">
    <path class="st2" d="M44.3,693.2h59.8s20.3-27.4,28.5-28.6c8.3-1.2,12.2,23.1,21.1,21.2s17.9-36.5,32.6-32.7c14.7,3.9,43.5,49.6,55.8,55.9,7.6,3.9,11.1-15.1,18.1-18.2,7-3,17.3,4.3,24.2,0,10.8-6.8,27.1-40.9,40.8-40.9s30.4,38.3,41.2,41.3c10.7,2.9,12.9-26.6,23.5-23.5,5.7,1.6,13.1,13,20.9,23.5,7.3,9.9,14.9,19.1,21.7,19.1,14.1,0,31.9-38.6,42.2-42.3,8.8-3.2,19.9,25.1,19.9,25.1h47.2"/>
  </g>
  <g class="st10">
    <path class="st2" d="M44.3,694.2h59.8s20.3,27.4,28.5,28.6c8.3,1.2,12.2-23.1,21.1-21.2s17.9,36.5,32.6,32.7c14.7-3.9,43.5-49.6,55.8-55.9,7.6-3.9,11.1,15.1,18.1,18.2,7,3,17.3-4.3,24.2,0,10.8,6.8,27.1,40.9,40.8,40.9s30.4-38.3,41.2-41.3c10.7-2.9,12.9,26.6,23.5,23.5,5.7-1.6,13.1-13,20.9-23.5,7.3-9.9,14.9-19.1,21.7-19.1,14.1,0,31.9,38.6,42.2,42.3,8.8,3.2,19.9-26.1,19.9-26.1h47.2"/>
  </g>
  <g>
    <path class="st13" d="M126.2,340.8s0,0,0,.1v8.7h-11v-8.7s0-.1,0-.1-.2,0-.2.1v14.4s0,.1.2.1,0,0,0-.1v-5.4h11v5.4s0,.1,0,.1.2,0,.2-.1v-14.4s0-.1-.2-.1Z"/>
    <path class="st13" d="M135.7,340.9s0-.1-.2-.1-.1,0-.1.1v14.4s0,.1.1.1.2,0,.2-.1v-14.4Z"/>
    <path class="st13" d="M155.8,349.6h-4.7s-.1,0-.1.2,0,.1.1.1h4.6v3.8c-1.1.9-2.9,1.6-4.5,1.6-4.1,0-7.3-3.1-7.3-7.2s3.2-7.2,7.3-7.2,3,.3,4.5,1.6h.2v-.2c-1.5-1.3-3.2-1.7-4.7-1.7-4.2,0-7.6,3.3-7.6,7.5s3.3,7.5,7.6,7.5,3.6-.7,4.7-1.7v-4.2c0-.1,0-.2-.1-.2h0Z"/>
    <path class="st13" d="M175.7,340.8s-.1,0-.1.1v8.7h-11v-8.7s0-.1-.1-.1-.2,0-.2.1v14.4s0,.1.2.1.1,0,.1-.1v-5.4h11v5.4s0,.1.1.1.2,0,.2-.1v-14.4s0-.1-.2-.1Z"/>
    <path class="st13" d="M203.5,340.8h-9c-.1,0-.2,0-.2.1v14.3c0,.1,0,.2.2.2h0s.1,0,.1-.2v-5.3h7.4c.1,0,.2,0,.2-.1h0c0-.1,0-.2-.2-.2h-7.4v-8.6h8.9c.1,0,.2,0,.2-.2h0s0-.1-.2-.1h0Z"/>
    <path class="st13" d="M218.8,350.7c1.7-.8,2.8-2.6,2.8-4.7,0-3.1-2.3-5.3-5.4-5.3h-4.7c-.1,0-.2,0-.2.1v14.4c0,.1,0,.2.2.2h0s.1,0,.1-.2v-4h4.5c.8,0,1.6-.2,2.3-.4l2.1,4.5s0,.1.2.1h0c.1,0,.2-.1.1-.2l-2.2-4.5h.2ZM211.7,351v-9.9h4.5c2.9,0,5.1,2.1,5.1,5s-2.1,4.9-5.1,4.9h-4.5Z"/>
    <path class="st13" d="M240,355.1h-9.8v-5.3h8.1q.2,0,.2-.1h0c0-.1,0-.2-.2-.2h-8.1v-8.4h9.5c.1,0,.2,0,.2-.2h0s0-.1-.2-.1h-9.7c-.1,0-.2,0-.2.1v14.3c0,.1,0,.2.2.2h9.9c.1,0,.2,0,.2-.2h0c0-.1,0-.2-.2-.2h.1Z"/>
    <path class="st13" d="M261.6,348.2c0-4.2-3.3-7.5-7.5-7.5s-7.5,3.3-7.5,7.5,3.2,7.4,7.3,7.5v2.2c0,.1,0,.2.2.2s.1,0,.1-.2v-2.2c4.1,0,7.4-3.3,7.4-7.5ZM254.1,355.3c-4,0-7.2-3.1-7.2-7.2s3.2-7.2,7.2-7.2,7.2,3.2,7.2,7.2-3.2,7.2-7.2,7.2h0Z"/>
    <path class="st13" d="M269.3,340.9q0-.1-.1-.1h0c-.1,0-.2,0-.2.1v8.9c0,3.2,2.6,5.9,5.9,5.9s5.9-2.6,5.9-5.8v-8.9q0-.1-.1-.1h0s-.2,0-.2.1v8.9c0,3.1-2.5,5.6-5.6,5.6s-5.6-2.5-5.6-5.6v-8.9h0Z"/>
    <path class="st13" d="M299.5,355.1h-9.8v-5.3h8.1q.2,0,.2-.1h0c0-.1,0-.2-.2-.2h-8.1v-8.4h9.5c.1,0,.2,0,.2-.2h0s0-.1-.2-.1h-9.7c-.1,0-.2,0-.2.1v14.3c0,.1,0,.2.2.2h9.9c.1,0,.2,0,.2-.2h0c0-.1,0-.2-.2-.2h.1Z"/>
    <path class="st13" d="M319.1,340.8c-.1,0-.2,0-.2.1v14.1l-11.2-14.1c0-.1-.1-.1-.2-.1s-.2,0-.2.1v14.4s0,.1.2.1.1,0,.1-.1v-14.1l11.2,14.1h.2s.2,0,.2-.1v-14.4s0-.1-.2-.1h.1Z"/>
    <path class="st13" d="M339.2,353.6c-1.3,1.1-2.9,1.7-4.5,1.7-4,0-7.3-3.2-7.3-7.2s3.2-7.2,7.3-7.2,3.2.5,4.5,1.7c.2.1.2,0,.3,0h0s0-.1-.1-.3c-1.3-1.2-3-1.7-4.7-1.7-4.2,0-7.6,3.3-7.6,7.5s3.4,7.5,7.6,7.5,3.4-.6,4.7-1.7c0,0,.1-.2,0-.3h-.2,0Z"/>
    <path class="st13" d="M355.5,340.8h0s-.1,0-.2.1l-4.8,8-4.7-8h-.1c-.1,0-.2,0,0,.2l4.9,8.2v6.1c0,.1,0,.2.2.2h0s.1,0,.1-.2v-6.1l4.9-8.2c.1-.2,0-.3,0-.3h-.3Z"/>
    <path class="st13" d="M381.4,340.8h-9c-.1,0-.2,0-.2.1v14.3c0,.1,0,.2.2.2h0s.1,0,.1-.2v-5.3h7.4c.1,0,.2,0,.2-.1h0c0-.1,0-.2-.2-.2h-7.4v-8.6h8.9c.1,0,.2,0,.2-.2h0s0-.1-.2-.1h0Z"/>
    <path class="st13" d="M399.8,355.2l-6-14.3s-.1-.1-.2-.1h0s-.1,0-.1.1l-6,14.4c0,.1,0,.2.1.2h.1c0-.1,1-2.5,1-2.5h9.8l1,2.4s0,.1.1.1h0c.1,0,.2,0,.1-.2h.1ZM388.8,352.6l4.8-11.4,4.8,11.4h-9.6Z"/>
    <path class="st13" d="M410.5,355.6c3,0,4.8-1.5,4.8-3.9s-2.3-3.2-4.6-4c-2.1-.8-4.1-1.7-4.1-3.7s1.5-3,3.9-3,2.8.5,3.6,1.5c0,.1.2.2.3,0h0v-.3c-.7-1-2.2-1.6-3.8-1.6-2.6,0-4.2,1.4-4.2,3.3s2.2,3.1,4.3,4c2.2.9,4.4,1.8,4.4,3.7s-1.7,3.6-4.5,3.6-3.5-1-4.4-2.3c0-.1-.2-.2-.3-.2h0c-.1,0,0,.2,0,.3.9,1.4,2.9,2.5,4.7,2.5h0Z"/>
    <path class="st13" d="M434.6,340.8s-.1,0-.1.1v8.7h-11v-8.7s0-.1-.1-.1-.2,0-.2.1v14.4s0,.1.2.1.1,0,.1-.1v-5.4h11v5.4s0,.1.1.1.2,0,.2-.1v-14.4s0-.1-.2-.1Z"/>
    <path class="st13" d="M444.1,340.9s0-.1-.2-.1-.1,0-.1.1v14.4s0,.1.1.1.2,0,.2-.1v-14.4Z"/>
    <path class="st13" d="M451.9,348.2c0,4.2,3.3,7.5,7.5,7.5s7.5-3.3,7.5-7.5-3.3-7.5-7.5-7.5-7.5,3.3-7.5,7.5ZM452.2,348.2c0-4.1,3.2-7.2,7.2-7.2s7.2,3.2,7.2,7.2-3.2,7.2-7.2,7.2-7.2-3.1-7.2-7.2Z"/>
    <path class="st13" d="M486.6,340.8c-.1,0-.2,0-.2.1v14.1l-11.2-14.1c0-.1-.1-.1-.2-.1s-.2,0-.2.1v14.4s0,.1.2.1.1,0,.1-.1v-14.1l11.2,14.1h.2s.2,0,.2-.1v-14.4s0-.1-.2-.1h.1Z"/>
  </g>
</svg>